%TF.GenerationSoftware,KiCad,Pcbnew,(5.1.6)-1*%
%TF.CreationDate,2020-11-18T20:34:03+02:00*%
%TF.ProjectId,Gesture-Control-PCB,47657374-7572-4652-9d43-6f6e74726f6c,rev?*%
%TF.SameCoordinates,Original*%
%TF.FileFunction,Legend,Bot*%
%TF.FilePolarity,Positive*%
%FSLAX46Y46*%
G04 Gerber Fmt 4.6, Leading zero omitted, Abs format (unit mm)*
G04 Created by KiCad (PCBNEW (5.1.6)-1) date 2020-11-18 20:34:03*
%MOMM*%
%LPD*%
G01*
G04 APERTURE LIST*
%ADD10C,0.120000*%
%ADD11C,0.150000*%
G04 APERTURE END LIST*
D10*
X111000000Y-91500000D02*
X89700000Y-91500000D01*
X111000000Y-108000000D02*
X111000000Y-91500000D01*
X89700000Y-108100000D02*
X111000000Y-108000000D01*
X89700000Y-91500000D02*
X89700000Y-108100000D01*
%TO.C,U1*%
X95490000Y-120080000D02*
X95490000Y-109840000D01*
X111380000Y-120080000D02*
X111380000Y-109840000D01*
X111380000Y-120080000D02*
X95490000Y-120080000D01*
X111380000Y-109840000D02*
X95490000Y-109840000D01*
X95490000Y-117500000D02*
X92950000Y-117500000D01*
X95490000Y-114960000D02*
X92950000Y-114960000D01*
X95490000Y-112420000D02*
X92950000Y-112420000D01*
%TO.C,J1*%
X96400000Y-82900000D02*
X99000000Y-82900000D01*
X96400000Y-68200000D02*
X96400000Y-82900000D01*
X105600000Y-82900000D02*
X105600000Y-81000000D01*
X102900000Y-82900000D02*
X105600000Y-82900000D01*
X105600000Y-68200000D02*
X96400000Y-68200000D01*
X105600000Y-77000000D02*
X105600000Y-68200000D01*
X96200000Y-82050000D02*
X96200000Y-83100000D01*
X97250000Y-83100000D02*
X96200000Y-83100000D01*
%TO.C,J2*%
X107930000Y-94530000D02*
X107930000Y-91870000D01*
X107930000Y-94530000D02*
X90090000Y-94530000D01*
X90090000Y-94530000D02*
X90090000Y-91870000D01*
X107930000Y-91870000D02*
X90090000Y-91870000D01*
X110530000Y-91870000D02*
X109200000Y-91870000D01*
X110530000Y-93200000D02*
X110530000Y-91870000D01*
%TO.C,U1*%
D11*
X111832380Y-114198095D02*
X112641904Y-114198095D01*
X112737142Y-114245714D01*
X112784761Y-114293333D01*
X112832380Y-114388571D01*
X112832380Y-114579047D01*
X112784761Y-114674285D01*
X112737142Y-114721904D01*
X112641904Y-114769523D01*
X111832380Y-114769523D01*
X112832380Y-115769523D02*
X112832380Y-115198095D01*
X112832380Y-115483809D02*
X111832380Y-115483809D01*
X111975238Y-115388571D01*
X112070476Y-115293333D01*
X112118095Y-115198095D01*
%TO.C,J1*%
X106202380Y-73216666D02*
X106916666Y-73216666D01*
X107059523Y-73169047D01*
X107154761Y-73073809D01*
X107202380Y-72930952D01*
X107202380Y-72835714D01*
X107202380Y-74216666D02*
X107202380Y-73645238D01*
X107202380Y-73930952D02*
X106202380Y-73930952D01*
X106345238Y-73835714D01*
X106440476Y-73740476D01*
X106488095Y-73645238D01*
%TO.C,J2*%
X111422380Y-92866666D02*
X112136666Y-92866666D01*
X112279523Y-92819047D01*
X112374761Y-92723809D01*
X112422380Y-92580952D01*
X112422380Y-92485714D01*
X111517619Y-93295238D02*
X111470000Y-93342857D01*
X111422380Y-93438095D01*
X111422380Y-93676190D01*
X111470000Y-93771428D01*
X111517619Y-93819047D01*
X111612857Y-93866666D01*
X111708095Y-93866666D01*
X111850952Y-93819047D01*
X112422380Y-93247619D01*
X112422380Y-93866666D01*
%TD*%
M02*
