%TF.GenerationSoftware,KiCad,Pcbnew,(5.1.6)-1*%
%TF.CreationDate,2020-11-18T20:34:03+02:00*%
%TF.ProjectId,Gesture-Control-PCB,47657374-7572-4652-9d43-6f6e74726f6c,rev?*%
%TF.SameCoordinates,Original*%
%TF.FileFunction,Legend,Top*%
%TF.FilePolarity,Positive*%
%FSLAX46Y46*%
G04 Gerber Fmt 4.6, Leading zero omitted, Abs format (unit mm)*
G04 Created by KiCad (PCBNEW (5.1.6)-1) date 2020-11-18 20:34:03*
%MOMM*%
%LPD*%
G01*
G04 APERTURE LIST*
%ADD10C,0.150000*%
G04 APERTURE END LIST*
D10*
%TO.C,U3*%
X116575001Y-125075001D02*
X116575001Y-68075001D01*
X86075001Y-125075001D02*
X116575001Y-125075001D01*
X86075001Y-68075001D02*
X86075001Y-125075001D01*
X86575001Y-68075001D02*
X86075001Y-68075001D01*
X116575001Y-68075001D02*
X86575001Y-68075001D01*
X115821052Y-70635001D02*
G75*
G03*
X115821052Y-70635001I-1796051J0D01*
G01*
X90421052Y-70635001D02*
G75*
G03*
X90421052Y-70635001I-1796051J0D01*
G01*
X90421052Y-122705001D02*
G75*
G03*
X90421052Y-122705001I-1796051J0D01*
G01*
X115821052Y-122705001D02*
G75*
G03*
X115821052Y-122705001I-1796051J0D01*
G01*
X97515001Y-120165001D02*
X97515001Y-126515001D01*
X105135001Y-120165001D02*
X97515001Y-120165001D01*
X105135001Y-126515001D02*
X105135001Y-120165001D01*
X97515001Y-126515001D02*
X105135001Y-126515001D01*
X103865001Y-69365001D02*
X107675001Y-69365001D01*
X103865001Y-73175001D02*
X103865001Y-69365001D01*
X102595001Y-73175001D02*
X103865001Y-73175001D01*
X102595001Y-69365001D02*
X102595001Y-73175001D01*
X101325001Y-69365001D02*
X102595001Y-69365001D01*
X101325001Y-73175001D02*
X101325001Y-69365001D01*
X100055001Y-73175001D02*
X101325001Y-73175001D01*
X100055001Y-69365001D02*
X100055001Y-73175001D01*
X98785001Y-69365001D02*
X100055001Y-69365001D01*
X98785001Y-73175001D02*
X98785001Y-69365001D01*
X97515001Y-73175001D02*
X98785001Y-73175001D01*
X97515001Y-69365001D02*
X97515001Y-73175001D01*
X96245001Y-69365001D02*
X97515001Y-69365001D01*
X96245001Y-74445001D02*
X96245001Y-69365001D01*
X103865001Y-74445001D02*
X96245001Y-74445001D01*
X95325001Y-89575001D02*
X95325001Y-75575001D01*
X107325001Y-89575001D02*
X95325001Y-89575001D01*
X107325001Y-75575001D02*
X107325001Y-89575001D01*
X95325001Y-75575001D02*
X107325001Y-75575001D01*
X100563096Y-98027381D02*
X100563096Y-98836905D01*
X100610715Y-98932143D01*
X100658334Y-98979762D01*
X100753572Y-99027381D01*
X100944048Y-99027381D01*
X101039286Y-98979762D01*
X101086905Y-98932143D01*
X101134524Y-98836905D01*
X101134524Y-98027381D01*
X101515477Y-98027381D02*
X102134524Y-98027381D01*
X101801191Y-98408334D01*
X101944048Y-98408334D01*
X102039286Y-98455953D01*
X102086905Y-98503572D01*
X102134524Y-98598810D01*
X102134524Y-98836905D01*
X102086905Y-98932143D01*
X102039286Y-98979762D01*
X101944048Y-99027381D01*
X101658334Y-99027381D01*
X101563096Y-98979762D01*
X101515477Y-98932143D01*
X88799762Y-112632381D02*
X89133096Y-113632381D01*
X89466429Y-112632381D01*
X89799762Y-113632381D02*
X89799762Y-112632381D01*
X90275953Y-113632381D02*
X90275953Y-112632381D01*
X90847381Y-113632381D01*
X90847381Y-112632381D01*
X90156905Y-110140001D02*
X90061667Y-110092381D01*
X89918810Y-110092381D01*
X89775953Y-110140001D01*
X89680715Y-110235239D01*
X89633096Y-110330477D01*
X89585477Y-110520953D01*
X89585477Y-110663810D01*
X89633096Y-110854286D01*
X89680715Y-110949524D01*
X89775953Y-111044762D01*
X89918810Y-111092381D01*
X90014048Y-111092381D01*
X90156905Y-111044762D01*
X90204524Y-110997143D01*
X90204524Y-110663810D01*
X90014048Y-110663810D01*
X89347381Y-108552381D02*
X89014048Y-108076191D01*
X88775953Y-108552381D02*
X88775953Y-107552381D01*
X89156905Y-107552381D01*
X89252143Y-107600001D01*
X89299762Y-107647620D01*
X89347381Y-107742858D01*
X89347381Y-107885715D01*
X89299762Y-107980953D01*
X89252143Y-108028572D01*
X89156905Y-108076191D01*
X88775953Y-108076191D01*
X89728334Y-108504762D02*
X89871191Y-108552381D01*
X90109286Y-108552381D01*
X90204524Y-108504762D01*
X90252143Y-108457143D01*
X90299762Y-108361905D01*
X90299762Y-108266667D01*
X90252143Y-108171429D01*
X90204524Y-108123810D01*
X90109286Y-108076191D01*
X89918810Y-108028572D01*
X89823572Y-107980953D01*
X89775953Y-107933334D01*
X89728334Y-107838096D01*
X89728334Y-107742858D01*
X89775953Y-107647620D01*
X89823572Y-107600001D01*
X89918810Y-107552381D01*
X90156905Y-107552381D01*
X90299762Y-107600001D01*
X90585477Y-107552381D02*
X91156905Y-107552381D01*
X90871191Y-108552381D02*
X90871191Y-107552381D01*
X89156905Y-105488572D02*
X89490239Y-105488572D01*
X89633096Y-106012381D02*
X89156905Y-106012381D01*
X89156905Y-105012381D01*
X89633096Y-105012381D01*
X90061667Y-106012381D02*
X90061667Y-105012381D01*
X90633096Y-106012381D01*
X90633096Y-105012381D01*
X89133096Y-102472381D02*
X89752143Y-102472381D01*
X89418810Y-102853334D01*
X89561667Y-102853334D01*
X89656905Y-102900953D01*
X89704524Y-102948572D01*
X89752143Y-103043810D01*
X89752143Y-103281905D01*
X89704524Y-103377143D01*
X89656905Y-103424762D01*
X89561667Y-103472381D01*
X89275953Y-103472381D01*
X89180715Y-103424762D01*
X89133096Y-103377143D01*
X90037858Y-102472381D02*
X90371191Y-103472381D01*
X90704524Y-102472381D01*
X90156905Y-99980001D02*
X90061667Y-99932381D01*
X89918810Y-99932381D01*
X89775953Y-99980001D01*
X89680715Y-100075239D01*
X89633096Y-100170477D01*
X89585477Y-100360953D01*
X89585477Y-100503810D01*
X89633096Y-100694286D01*
X89680715Y-100789524D01*
X89775953Y-100884762D01*
X89918810Y-100932381D01*
X90014048Y-100932381D01*
X90156905Y-100884762D01*
X90204524Y-100837143D01*
X90204524Y-100503810D01*
X90014048Y-100503810D01*
X89109286Y-98344762D02*
X89252143Y-98392381D01*
X89490239Y-98392381D01*
X89585477Y-98344762D01*
X89633096Y-98297143D01*
X89680715Y-98201905D01*
X89680715Y-98106667D01*
X89633096Y-98011429D01*
X89585477Y-97963810D01*
X89490239Y-97916191D01*
X89299762Y-97868572D01*
X89204524Y-97820953D01*
X89156905Y-97773334D01*
X89109286Y-97678096D01*
X89109286Y-97582858D01*
X89156905Y-97487620D01*
X89204524Y-97440001D01*
X89299762Y-97392381D01*
X89537858Y-97392381D01*
X89680715Y-97440001D01*
X90109286Y-98392381D02*
X90109286Y-97392381D01*
X90680715Y-98392381D02*
X90252143Y-97820953D01*
X90680715Y-97392381D02*
X90109286Y-97963810D01*
X89085477Y-95804762D02*
X89228334Y-95852381D01*
X89466429Y-95852381D01*
X89561667Y-95804762D01*
X89609286Y-95757143D01*
X89656905Y-95661905D01*
X89656905Y-95566667D01*
X89609286Y-95471429D01*
X89561667Y-95423810D01*
X89466429Y-95376191D01*
X89275953Y-95328572D01*
X89180715Y-95280953D01*
X89133096Y-95233334D01*
X89085477Y-95138096D01*
X89085477Y-95042858D01*
X89133096Y-94947620D01*
X89180715Y-94900001D01*
X89275953Y-94852381D01*
X89514048Y-94852381D01*
X89656905Y-94900001D01*
X90275953Y-94852381D02*
X90466429Y-94852381D01*
X90561667Y-94900001D01*
X90656905Y-94995239D01*
X90704524Y-95185715D01*
X90704524Y-95519048D01*
X90656905Y-95709524D01*
X90561667Y-95804762D01*
X90466429Y-95852381D01*
X90275953Y-95852381D01*
X90180715Y-95804762D01*
X90085477Y-95709524D01*
X90037858Y-95519048D01*
X90037858Y-95185715D01*
X90085477Y-94995239D01*
X90180715Y-94900001D01*
X90275953Y-94852381D01*
X89109286Y-93264762D02*
X89252143Y-93312381D01*
X89490239Y-93312381D01*
X89585477Y-93264762D01*
X89633096Y-93217143D01*
X89680715Y-93121905D01*
X89680715Y-93026667D01*
X89633096Y-92931429D01*
X89585477Y-92883810D01*
X89490239Y-92836191D01*
X89299762Y-92788572D01*
X89204524Y-92740953D01*
X89156905Y-92693334D01*
X89109286Y-92598096D01*
X89109286Y-92502858D01*
X89156905Y-92407620D01*
X89204524Y-92360001D01*
X89299762Y-92312381D01*
X89537858Y-92312381D01*
X89680715Y-92360001D01*
X90680715Y-93217143D02*
X90633096Y-93264762D01*
X90490239Y-93312381D01*
X90395001Y-93312381D01*
X90252143Y-93264762D01*
X90156905Y-93169524D01*
X90109286Y-93074286D01*
X90061667Y-92883810D01*
X90061667Y-92740953D01*
X90109286Y-92550477D01*
X90156905Y-92455239D01*
X90252143Y-92360001D01*
X90395001Y-92312381D01*
X90490239Y-92312381D01*
X90633096Y-92360001D01*
X90680715Y-92407620D01*
X89133096Y-90724762D02*
X89275953Y-90772381D01*
X89514048Y-90772381D01*
X89609286Y-90724762D01*
X89656905Y-90677143D01*
X89704524Y-90581905D01*
X89704524Y-90486667D01*
X89656905Y-90391429D01*
X89609286Y-90343810D01*
X89514048Y-90296191D01*
X89323572Y-90248572D01*
X89228334Y-90200953D01*
X89180715Y-90153334D01*
X89133096Y-90058096D01*
X89133096Y-89962858D01*
X89180715Y-89867620D01*
X89228334Y-89820001D01*
X89323572Y-89772381D01*
X89561667Y-89772381D01*
X89704524Y-89820001D01*
X90656905Y-90772381D02*
X90085477Y-90772381D01*
X90371191Y-90772381D02*
X90371191Y-89772381D01*
X90275953Y-89915239D01*
X90180715Y-90010477D01*
X90085477Y-90058096D01*
X89133096Y-88184762D02*
X89275953Y-88232381D01*
X89514048Y-88232381D01*
X89609286Y-88184762D01*
X89656905Y-88137143D01*
X89704524Y-88041905D01*
X89704524Y-87946667D01*
X89656905Y-87851429D01*
X89609286Y-87803810D01*
X89514048Y-87756191D01*
X89323572Y-87708572D01*
X89228334Y-87660953D01*
X89180715Y-87613334D01*
X89133096Y-87518096D01*
X89133096Y-87422858D01*
X89180715Y-87327620D01*
X89228334Y-87280001D01*
X89323572Y-87232381D01*
X89561667Y-87232381D01*
X89704524Y-87280001D01*
X90085477Y-87327620D02*
X90133096Y-87280001D01*
X90228334Y-87232381D01*
X90466429Y-87232381D01*
X90561667Y-87280001D01*
X90609286Y-87327620D01*
X90656905Y-87422858D01*
X90656905Y-87518096D01*
X90609286Y-87660953D01*
X90037858Y-88232381D01*
X90656905Y-88232381D01*
X89133096Y-85644762D02*
X89275953Y-85692381D01*
X89514048Y-85692381D01*
X89609286Y-85644762D01*
X89656905Y-85597143D01*
X89704524Y-85501905D01*
X89704524Y-85406667D01*
X89656905Y-85311429D01*
X89609286Y-85263810D01*
X89514048Y-85216191D01*
X89323572Y-85168572D01*
X89228334Y-85120953D01*
X89180715Y-85073334D01*
X89133096Y-84978096D01*
X89133096Y-84882858D01*
X89180715Y-84787620D01*
X89228334Y-84740001D01*
X89323572Y-84692381D01*
X89561667Y-84692381D01*
X89704524Y-84740001D01*
X90037858Y-84692381D02*
X90656905Y-84692381D01*
X90323572Y-85073334D01*
X90466429Y-85073334D01*
X90561667Y-85120953D01*
X90609286Y-85168572D01*
X90656905Y-85263810D01*
X90656905Y-85501905D01*
X90609286Y-85597143D01*
X90561667Y-85644762D01*
X90466429Y-85692381D01*
X90180715Y-85692381D01*
X90085477Y-85644762D01*
X90037858Y-85597143D01*
X89037858Y-82152381D02*
X89371191Y-83152381D01*
X89704524Y-82152381D01*
X90037858Y-82152381D02*
X90037858Y-82961905D01*
X90085477Y-83057143D01*
X90133096Y-83104762D01*
X90228334Y-83152381D01*
X90418810Y-83152381D01*
X90514048Y-83104762D01*
X90561667Y-83057143D01*
X90609286Y-82961905D01*
X90609286Y-82152381D01*
X90156905Y-79660001D02*
X90061667Y-79612381D01*
X89918810Y-79612381D01*
X89775953Y-79660001D01*
X89680715Y-79755239D01*
X89633096Y-79850477D01*
X89585477Y-80040953D01*
X89585477Y-80183810D01*
X89633096Y-80374286D01*
X89680715Y-80469524D01*
X89775953Y-80564762D01*
X89918810Y-80612381D01*
X90014048Y-80612381D01*
X90156905Y-80564762D01*
X90204524Y-80517143D01*
X90204524Y-80183810D01*
X90014048Y-80183810D01*
X89180715Y-77786667D02*
X89656905Y-77786667D01*
X89085477Y-78072381D02*
X89418810Y-77072381D01*
X89752143Y-78072381D01*
X90275953Y-77072381D02*
X90371191Y-77072381D01*
X90466429Y-77120001D01*
X90514048Y-77167620D01*
X90561667Y-77262858D01*
X90609286Y-77453334D01*
X90609286Y-77691429D01*
X90561667Y-77881905D01*
X90514048Y-77977143D01*
X90466429Y-78024762D01*
X90371191Y-78072381D01*
X90275953Y-78072381D01*
X90180715Y-78024762D01*
X90133096Y-77977143D01*
X90085477Y-77881905D01*
X90037858Y-77691429D01*
X90037858Y-77453334D01*
X90085477Y-77262858D01*
X90133096Y-77167620D01*
X90180715Y-77120001D01*
X90275953Y-77072381D01*
X111993096Y-112632381D02*
X112612143Y-112632381D01*
X112278810Y-113013334D01*
X112421667Y-113013334D01*
X112516905Y-113060953D01*
X112564524Y-113108572D01*
X112612143Y-113203810D01*
X112612143Y-113441905D01*
X112564524Y-113537143D01*
X112516905Y-113584762D01*
X112421667Y-113632381D01*
X112135953Y-113632381D01*
X112040715Y-113584762D01*
X111993096Y-113537143D01*
X112897858Y-112632381D02*
X113231191Y-113632381D01*
X113564524Y-112632381D01*
X113016905Y-110140001D02*
X112921667Y-110092381D01*
X112778810Y-110092381D01*
X112635953Y-110140001D01*
X112540715Y-110235239D01*
X112493096Y-110330477D01*
X112445477Y-110520953D01*
X112445477Y-110663810D01*
X112493096Y-110854286D01*
X112540715Y-110949524D01*
X112635953Y-111044762D01*
X112778810Y-111092381D01*
X112874048Y-111092381D01*
X113016905Y-111044762D01*
X113064524Y-110997143D01*
X113064524Y-110663810D01*
X112874048Y-110663810D01*
X111993096Y-107552381D02*
X112564524Y-107552381D01*
X112278810Y-108552381D02*
X112278810Y-107552381D01*
X112802620Y-107552381D02*
X113469286Y-108552381D01*
X113469286Y-107552381D02*
X112802620Y-108552381D01*
X112588334Y-106012381D02*
X112255001Y-105536191D01*
X112016905Y-106012381D02*
X112016905Y-105012381D01*
X112397858Y-105012381D01*
X112493096Y-105060001D01*
X112540715Y-105107620D01*
X112588334Y-105202858D01*
X112588334Y-105345715D01*
X112540715Y-105440953D01*
X112493096Y-105488572D01*
X112397858Y-105536191D01*
X112016905Y-105536191D01*
X112921667Y-105012381D02*
X113588334Y-106012381D01*
X113588334Y-105012381D02*
X112921667Y-106012381D01*
X112016905Y-103472381D02*
X112016905Y-102472381D01*
X112255001Y-102472381D01*
X112397858Y-102520001D01*
X112493096Y-102615239D01*
X112540715Y-102710477D01*
X112588334Y-102900953D01*
X112588334Y-103043810D01*
X112540715Y-103234286D01*
X112493096Y-103329524D01*
X112397858Y-103424762D01*
X112255001Y-103472381D01*
X112016905Y-103472381D01*
X113159762Y-102900953D02*
X113064524Y-102853334D01*
X113016905Y-102805715D01*
X112969286Y-102710477D01*
X112969286Y-102662858D01*
X113016905Y-102567620D01*
X113064524Y-102520001D01*
X113159762Y-102472381D01*
X113350239Y-102472381D01*
X113445477Y-102520001D01*
X113493096Y-102567620D01*
X113540715Y-102662858D01*
X113540715Y-102710477D01*
X113493096Y-102805715D01*
X113445477Y-102853334D01*
X113350239Y-102900953D01*
X113159762Y-102900953D01*
X113064524Y-102948572D01*
X113016905Y-102996191D01*
X112969286Y-103091429D01*
X112969286Y-103281905D01*
X113016905Y-103377143D01*
X113064524Y-103424762D01*
X113159762Y-103472381D01*
X113350239Y-103472381D01*
X113445477Y-103424762D01*
X113493096Y-103377143D01*
X113540715Y-103281905D01*
X113540715Y-103091429D01*
X113493096Y-102996191D01*
X113445477Y-102948572D01*
X113350239Y-102900953D01*
X112016905Y-100932381D02*
X112016905Y-99932381D01*
X112255001Y-99932381D01*
X112397858Y-99980001D01*
X112493096Y-100075239D01*
X112540715Y-100170477D01*
X112588334Y-100360953D01*
X112588334Y-100503810D01*
X112540715Y-100694286D01*
X112493096Y-100789524D01*
X112397858Y-100884762D01*
X112255001Y-100932381D01*
X112016905Y-100932381D01*
X112921667Y-99932381D02*
X113588334Y-99932381D01*
X113159762Y-100932381D01*
X112016905Y-98392381D02*
X112016905Y-97392381D01*
X112255001Y-97392381D01*
X112397858Y-97440001D01*
X112493096Y-97535239D01*
X112540715Y-97630477D01*
X112588334Y-97820953D01*
X112588334Y-97963810D01*
X112540715Y-98154286D01*
X112493096Y-98249524D01*
X112397858Y-98344762D01*
X112255001Y-98392381D01*
X112016905Y-98392381D01*
X113445477Y-97392381D02*
X113255001Y-97392381D01*
X113159762Y-97440001D01*
X113112143Y-97487620D01*
X113016905Y-97630477D01*
X112969286Y-97820953D01*
X112969286Y-98201905D01*
X113016905Y-98297143D01*
X113064524Y-98344762D01*
X113159762Y-98392381D01*
X113350239Y-98392381D01*
X113445477Y-98344762D01*
X113493096Y-98297143D01*
X113540715Y-98201905D01*
X113540715Y-97963810D01*
X113493096Y-97868572D01*
X113445477Y-97820953D01*
X113350239Y-97773334D01*
X113159762Y-97773334D01*
X113064524Y-97820953D01*
X113016905Y-97868572D01*
X112969286Y-97963810D01*
X112016905Y-95852381D02*
X112016905Y-94852381D01*
X112255001Y-94852381D01*
X112397858Y-94900001D01*
X112493096Y-94995239D01*
X112540715Y-95090477D01*
X112588334Y-95280953D01*
X112588334Y-95423810D01*
X112540715Y-95614286D01*
X112493096Y-95709524D01*
X112397858Y-95804762D01*
X112255001Y-95852381D01*
X112016905Y-95852381D01*
X113493096Y-94852381D02*
X113016905Y-94852381D01*
X112969286Y-95328572D01*
X113016905Y-95280953D01*
X113112143Y-95233334D01*
X113350239Y-95233334D01*
X113445477Y-95280953D01*
X113493096Y-95328572D01*
X113540715Y-95423810D01*
X113540715Y-95661905D01*
X113493096Y-95757143D01*
X113445477Y-95804762D01*
X113350239Y-95852381D01*
X113112143Y-95852381D01*
X113016905Y-95804762D01*
X112969286Y-95757143D01*
X113016905Y-92360001D02*
X112921667Y-92312381D01*
X112778810Y-92312381D01*
X112635953Y-92360001D01*
X112540715Y-92455239D01*
X112493096Y-92550477D01*
X112445477Y-92740953D01*
X112445477Y-92883810D01*
X112493096Y-93074286D01*
X112540715Y-93169524D01*
X112635953Y-93264762D01*
X112778810Y-93312381D01*
X112874048Y-93312381D01*
X113016905Y-93264762D01*
X113064524Y-93217143D01*
X113064524Y-92883810D01*
X112874048Y-92883810D01*
X111993096Y-89772381D02*
X112612143Y-89772381D01*
X112278810Y-90153334D01*
X112421667Y-90153334D01*
X112516905Y-90200953D01*
X112564524Y-90248572D01*
X112612143Y-90343810D01*
X112612143Y-90581905D01*
X112564524Y-90677143D01*
X112516905Y-90724762D01*
X112421667Y-90772381D01*
X112135953Y-90772381D01*
X112040715Y-90724762D01*
X111993096Y-90677143D01*
X112897858Y-89772381D02*
X113231191Y-90772381D01*
X113564524Y-89772381D01*
X112016905Y-88232381D02*
X112016905Y-87232381D01*
X112255001Y-87232381D01*
X112397858Y-87280001D01*
X112493096Y-87375239D01*
X112540715Y-87470477D01*
X112588334Y-87660953D01*
X112588334Y-87803810D01*
X112540715Y-87994286D01*
X112493096Y-88089524D01*
X112397858Y-88184762D01*
X112255001Y-88232381D01*
X112016905Y-88232381D01*
X113445477Y-87565715D02*
X113445477Y-88232381D01*
X113207381Y-87184762D02*
X112969286Y-87899048D01*
X113588334Y-87899048D01*
X112016905Y-85692381D02*
X112016905Y-84692381D01*
X112255001Y-84692381D01*
X112397858Y-84740001D01*
X112493096Y-84835239D01*
X112540715Y-84930477D01*
X112588334Y-85120953D01*
X112588334Y-85263810D01*
X112540715Y-85454286D01*
X112493096Y-85549524D01*
X112397858Y-85644762D01*
X112255001Y-85692381D01*
X112016905Y-85692381D01*
X112921667Y-84692381D02*
X113540715Y-84692381D01*
X113207381Y-85073334D01*
X113350239Y-85073334D01*
X113445477Y-85120953D01*
X113493096Y-85168572D01*
X113540715Y-85263810D01*
X113540715Y-85501905D01*
X113493096Y-85597143D01*
X113445477Y-85644762D01*
X113350239Y-85692381D01*
X113064524Y-85692381D01*
X112969286Y-85644762D01*
X112921667Y-85597143D01*
X112016905Y-83152381D02*
X112016905Y-82152381D01*
X112255001Y-82152381D01*
X112397858Y-82200001D01*
X112493096Y-82295239D01*
X112540715Y-82390477D01*
X112588334Y-82580953D01*
X112588334Y-82723810D01*
X112540715Y-82914286D01*
X112493096Y-83009524D01*
X112397858Y-83104762D01*
X112255001Y-83152381D01*
X112016905Y-83152381D01*
X112969286Y-82247620D02*
X113016905Y-82200001D01*
X113112143Y-82152381D01*
X113350239Y-82152381D01*
X113445477Y-82200001D01*
X113493096Y-82247620D01*
X113540715Y-82342858D01*
X113540715Y-82438096D01*
X113493096Y-82580953D01*
X112921667Y-83152381D01*
X113540715Y-83152381D01*
X112016905Y-80612381D02*
X112016905Y-79612381D01*
X112255001Y-79612381D01*
X112397858Y-79660001D01*
X112493096Y-79755239D01*
X112540715Y-79850477D01*
X112588334Y-80040953D01*
X112588334Y-80183810D01*
X112540715Y-80374286D01*
X112493096Y-80469524D01*
X112397858Y-80564762D01*
X112255001Y-80612381D01*
X112016905Y-80612381D01*
X113540715Y-80612381D02*
X112969286Y-80612381D01*
X113255001Y-80612381D02*
X113255001Y-79612381D01*
X113159762Y-79755239D01*
X113064524Y-79850477D01*
X112969286Y-79898096D01*
X112016905Y-78072381D02*
X112016905Y-77072381D01*
X112255001Y-77072381D01*
X112397858Y-77120001D01*
X112493096Y-77215239D01*
X112540715Y-77310477D01*
X112588334Y-77500953D01*
X112588334Y-77643810D01*
X112540715Y-77834286D01*
X112493096Y-77929524D01*
X112397858Y-78024762D01*
X112255001Y-78072381D01*
X112016905Y-78072381D01*
X113207381Y-77072381D02*
X113302620Y-77072381D01*
X113397858Y-77120001D01*
X113445477Y-77167620D01*
X113493096Y-77262858D01*
X113540715Y-77453334D01*
X113540715Y-77691429D01*
X113493096Y-77881905D01*
X113445477Y-77977143D01*
X113397858Y-78024762D01*
X113302620Y-78072381D01*
X113207381Y-78072381D01*
X113112143Y-78024762D01*
X113064524Y-77977143D01*
X113016905Y-77881905D01*
X112969286Y-77691429D01*
X112969286Y-77453334D01*
X113016905Y-77262858D01*
X113064524Y-77167620D01*
X113112143Y-77120001D01*
X113207381Y-77072381D01*
%TD*%
M02*
