M48
; DRILL file {KiCad (5.1.6)-1} date 11/18/20 20:34:37
; FORMAT={-:-/ absolute / metric / decimal}
; #@! TF.CreationDate,2020-11-18T20:34:37+02:00
; #@! TF.GenerationSoftware,Kicad,Pcbnew,(5.1.6)-1
; #@! TF.FileFunction,Plated,1,2,PTH
FMAT,2
METRIC
T1C0.762
T2C0.800
T3C1.000
T4C1.100
%
G90
G05
T1
X87.355Y-77.62
X87.355Y-80.16
X87.355Y-82.7
X87.355Y-85.24
X87.355Y-87.78
X87.355Y-90.32
X87.355Y-92.86
X87.355Y-95.4
X87.355Y-97.94
X87.355Y-100.48
X87.355Y-103.02
X87.355Y-105.56
X87.355Y-108.1
X87.355Y-110.64
X87.355Y-113.18
X115.295Y-77.62
X115.295Y-80.16
X115.295Y-82.7
X115.295Y-85.24
X115.295Y-87.78
X115.295Y-90.32
X115.295Y-92.86
X115.295Y-95.4
X115.295Y-97.94
X115.295Y-100.48
X115.295Y-103.02
X115.295Y-105.56
X115.295Y-108.1
X115.295Y-110.64
X115.295Y-113.18
T2
X112.2Y-88.3
T3
X91.42Y-93.2
X93.96Y-93.2
X96.5Y-93.2
X99.04Y-93.2
X101.58Y-93.2
X104.12Y-93.2
X106.66Y-93.2
X109.2Y-93.2
T4
X91.8Y-112.42
X91.8Y-114.96
X91.8Y-117.5
T3
G00X102.0Y-76.0
M15
G01X100.0Y-76.0
M16
G05
G00X102.0Y-82.0
M15
G01X100.0Y-82.0
M16
G05
G00X105.7Y-78.0
M15
G01X105.7Y-80.0
M16
G05
T0
M30
